<svg xmlns="http://www.w3.org/2000/svg" xmlns:xlink="http://www.w3.org/1999/xlink" width="30" height="42.291"><defs><linearGradient id="b"><stop offset="0" stop-color="#ee4948"/><stop offset="1" stop-color="#ed4d7d"/></linearGradient><linearGradient id="a"><stop offset="0" stop-color="#fff"/><stop offset="1" stop-color="#fff9f9" stop-opacity=".729"/></linearGradient><linearGradient xlink:href="#a" id="c" gradientUnits="userSpaceOnUse" gradientTransform="matrix(1.15191 0 0 1.15191 57.039 -207.164)" x1="509.138" y1="513.901" x2="467.16" y2="1029.114"/><linearGradient xlink:href="#b" id="d" x1="149.355" y1="139.44" x2="310.106" y2="446.929" gradientUnits="userSpaceOnUse"/></defs><path d="M384.406 53.184c60.919 60.919 70.647 156.257 23.298 228.222L256.004 512 104.291 281.406c-20.072-30.516-29.888-65.237-29.888-99.744 0-46.885 18.101-93.393 53.186-128.478 70.923-70.912 185.907-70.912 256.817 0z" fill="url(#d)" transform="translate(-6.146) scale(.0826)"/><path d="M16.86 16.753c-29.093 33.741-14.547 16.87 0 0z" fill="#ee4948"/><g fill="#fff"><path d="M14.257 3.413h1.487v2.974h-1.487zM10.144 7.887L8.657 5.312l1.288-.743 1.486 2.575zM19.856 7.887l-1.287-.743 1.487-2.575 1.287.743zM13.09 12.399l2.035 5.588a2.973 2.973 0 1 0 5.588-2.034l-2.034-5.588z"/><path d="M21.074 23.469l-1.397.508-1.525-4.19 1.397-.51z"/><path d="M14.108 15.193l5.588-2.034" stroke="#000" stroke-width="1.2906" stroke-miterlimit="10"/><path d="M23.424 23.405l-5.588 2.034-.508-1.397 5.588-2.034zM15.885 11.382l3.05 8.382a2.973 2.973 0 0 0 1.778-3.81l-2.034-5.59z"/><path d="M13.769 14.262l1.356 3.725a2.973 2.973 0 1 0 5.588-2.034l-1.356-3.725z"/><path d="M16.563 13.245l2.373 6.52a2.973 2.973 0 0 0 1.777-3.812l-1.356-3.725zM11.321 8.672L9.287 14.26a2.973 2.973 0 0 0 5.588 2.034l2.034-5.588z"/><path d="M10.323 22.284l-1.397-.509 1.525-4.19 1.397.508z"/><path d="M10.304 11.466l5.588 2.034" stroke="#000" stroke-width="1.2906" stroke-miterlimit="10"/><path d="M12.164 23.745l-5.588-2.033.508-1.398 5.588 2.034zM14.115 9.69l-3.05 8.381a2.973 2.973 0 0 0 3.81-1.777l2.034-5.588z"/><path d="M10.643 10.535L9.287 14.26a2.973 2.973 0 0 0 5.588 2.034l1.356-3.725z"/><path d="M13.437 11.552l-2.373 6.52a2.973 2.973 0 0 0 3.811-1.778l1.356-3.725z"/></g></svg>