<svg xmlns="http://www.w3.org/2000/svg" viewBox="0 0 317.5 52.955" height="200.145" width="1200.001"><path d="M0 52.955v-7.612l4.006 2.285.633-6.944.41.657 1.054-.128.754-1.768 1.065 2.262 10.382-.11.574-1.361.877 1.78 2.49-.232-.218-7.21 1.047-1.484 1.992-2.345-.47-1.231 1.92-.921 1.29 1.707.216 1.002 1.518 1.987 1.274-.334 1.154 1.214.561 5.875 6.754 1.478-.37-7.056-.65-.782L48.647 21.16l10.735 12.22 5.058-5.915 8.255 8.9-.313-.109.059.745 1.504-.599.947-1.177.489.537 1.058.004.394.823.996.139.205 1.635.823.118.533-17.9 2.553-3.167 2.908 3.52.185 3.871 4.209.08-.302-4.982 2.384-3.038 2.609 3.052.893 10.354 2.113.028 1.1 5.184 1.87-1.632-.664-3.08.253-2.766-.15-10.511.594-1.99 1.262.575c2.014.706.834.425 1.58-.812L106.392 0l3.015 17.172.657.172.377 2.145.173 9.472 25.673-.5 1.05-9.105 1.563 8.852 4.558-2.034.187-1.539 2.304 3.924 3.153-.285 3.527 3.877 5.563-.83.104 5.067 3.12-.125.002-4.754 4.145-6.475 1.442 1.45 4.383-6.09.76-2.828 1.037 3.06 5.388 6.966.937-2.512 4.5 6.226-.558 4.616 1.156.91v1.728l1.59-1.729.635-2.206 1.497-1.107 7.633-1.868.392.983 1.32.583s1.725.186 1.947-.252c.222-.44.479-1.51 1.912-2.98l.335-2.879 1.082-1.634.067-1.867-.067 1.867 1.65 1.966-.325 1.003v1.666l1.366 1.446.076-.985.88.05.122.95s.528.341.87.048l.522-1.353.609 1.334 4.104.033.722-1.127.578 1.08 4.333.099.556-1.333.694 1.231 3.996-.176 1.01-1.293.451 1.124 4.177.183.806-1.135.341.974 1.71-.102-.003-1.285.537.098.231 1.32 1.15-1.37.053-1.994 1.212-1.939.154-2.156.258 2.245 1.404 1.317-.186.692-.157 1.887 1.263.254.74-.748.726-.282.607.716.523.39 1.388-1.993 2.146-1.677 1.22-.048-.145-.921.913-.066.282.678 1.17-1.092 1.259.07 1.206.365 1.096 1.048.598 1.128.813.569.12.444-1.468.024.23 1.093 1.067.018.287 1.045-1.038 1.291.567 1.213 1.424.864 1.685.41 6.44-2.359 7.274 2 5.372-1.978 2.29.921 17.578.023.04-1.57 1.912-.128.191-4.11 6.487.073-.107 2.397.862.187-.132 2.404 3.528.304.01 3.528 1.16.335-.315 4.096 5.23 1.14.3 1.595.504.852 3.346.87-.036 7.613H.638z" fill="#fff"/></svg>