<?xml version="1.0" encoding="UTF-8" standalone="no"?>
<svg
   xmlns:dc="http://purl.org/dc/elements/1.1/"
   xmlns:cc="http://creativecommons.org/ns#"
   xmlns:rdf="http://www.w3.org/1999/02/22-rdf-syntax-ns#"
   xmlns:svg="http://www.w3.org/2000/svg"
   xmlns="http://www.w3.org/2000/svg"
   id="svg8"
   version="1.1"
   viewBox="0 0 317.50021 52.95503"
   height="200.14499"
   width="1200.0009">
  <defs
     id="defs2" />
  <metadata
     id="metadata5">
    <rdf:RDF>
      <cc:Work
         rdf:about="">
        <dc:format>image/svg+xml</dc:format>
        <dc:type
           rdf:resource="http://purl.org/dc/dcmitype/StillImage" />
        <dc:title></dc:title>
      </cc:Work>
    </rdf:RDF>
  </metadata>
  <path
     id="path5123"
     d="m 0,52.954987 v -2.785654 -4.826631 l 4.0063113,2.284985 v 0 l 0.6329948,-6.943584 0.4090713,0.657288 1.054818,-0.128884 0.7538199,-1.767651 1.0651266,2.261868 10.3816111,-0.11058 0.573855,-1.360275 0.877109,1.77955 2.491135,-0.231673 -0.219332,-7.209099 1.047541,-1.484917 1.99189,-2.345001 -0.470366,-1.2311 1.920834,-0.920816 1.289766,1.70727 0.215734,1.001908 1.517931,1.986556 1.274035,-0.333994 1.154133,1.214586 0.561096,5.874582 6.754165,1.478264 -0.370514,-7.05638 -0.650537,-0.781747 10.38588,-12.522847 10.734764,12.220343 5.058376,-5.915414 8.255248,8.899497 -0.313702,-0.10824 0.0589,0.745151 1.504125,-0.599286 0.946805,-1.177433 0.489396,0.53723 1.057909,0.0043 0.393774,0.822885 0.995996,0.138902 0.205225,1.635131 0.823232,0.118323 0.533301,-17.900434 2.552548,-3.167412 2.90752,3.520425 0.185733,3.871314 4.208273,0.08047 -0.301254,-4.982683 2.383814,-3.037703 2.608577,3.051264 0.893585,10.354146 2.113143,0.02773 1.098984,5.184637 1.870305,-1.631699 -0.664132,-3.080758 0.253747,-2.765339 -0.149833,-10.511825 0.593692,-1.988683 1.262071,0.574191 c 2.01344,0.706189 0.83348,0.42466 1.5807,-0.811817 L 106.39094,0 l 3.01521,17.171996 0.65706,0.172065 0.37728,2.145395 0.17214,9.471309 25.67336,-0.499774 1.05087,-9.104611 1.5624,8.851825 4.5581,-2.034326 0.1863,-1.538386 2.30439,3.92312 3.15271,-0.284919 3.52681,3.877018 5.5637,-0.830024 0.10408,5.066852 3.11992,-0.124878 0.002,-4.753669 4.14432,-6.474983 1.44256,1.450458 4.38253,-6.090966 0.75988,-2.827316 1.03736,3.060653 5.38815,6.965203 0.93734,-2.511893 4.49938,6.226058 -0.55825,4.615992 1.15673,0.908871 v 1.72859 l 1.59031,-1.72859 0.63475,-2.206278 1.49629,-1.106662 7.63354,-1.867887 0.39149,0.982628 v 0 l 1.31954,0.58344 c 0,0 1.72605,0.186133 1.94805,-0.252648 0.22199,-0.438781 0.4783,-1.509312 1.91167,-2.98049 l 0.33538,-2.87796 1.08122,-1.634372 0.0677,-1.867255 -0.0677,1.867255 1.6511,1.966517 -0.32578,1.002423 6.1e-4,1.665944 1.36537,1.445866 0.0758,-0.984176 0.88007,0.04886 0.12258,0.951327 c 0,0 0.52794,0.340376 0.87017,0.047 l 0.5211,-1.352113 0.6095,1.333529 4.10351,0.03296 0.72241,-1.127103 0.57818,1.079805 4.33251,0.09917 0.55677,-1.332735 0.69331,1.231331 3.99585,-0.176716 1.01122,-1.292556 0.45042,1.123952 4.17644,0.183076 0.80656,-1.134942 0.34079,0.973401 1.71059,-0.10191 -0.004,-1.284883 0.53781,0.09778 0.23074,1.321012 1.14975,-1.370904 0.0533,-1.994114 1.212,-1.938397 0.15425,-2.156743 0.25749,2.245344 1.40375,1.317265 -0.18612,0.69198 -0.15655,1.887286 1.26296,0.25409 0.74059,-0.748841 0.72513,-0.282032 0.60696,0.716567 0.5236,0.389817 1.38795,-1.992608 2.14573,-1.677279 1.21996,-0.0485 -0.14445,-0.92083 0.913,-0.06583 0.28131,0.67846 1.16951,-1.091912 1.25957,0.07043 1.20603,0.364307 1.09574,1.048237 0.59864,1.127261 0.81265,0.569299 0.11983,0.444157 -1.46739,0.02429 0.22879,1.092156 1.0683,0.01834 0.28696,1.04511 -1.03805,1.29126 0.56676,1.212838 1.42369,0.863894 1.68539,0.409255 6.43899,-2.35832 7.2749,1.999516 5.37149,-1.977679 2.29117,0.92151 17.57752,0.02249 0.0402,-1.569874 1.91135,-0.127844 0.19166,-4.110013 6.48621,0.07275 -0.10671,2.397014 0.86183,0.187361 -0.13166,2.404142 3.52795,0.303495 0.009,3.528036 1.16011,0.334786 -0.31376,4.096071 5.2302,1.140194 0.29987,1.595061 0.50304,0.851936 3.3467,0.870799 -0.0367,7.612285 H 0.63781833 Z"
     style="fill:#ffffff;fill-opacity:1;stroke-width:0.18955567" />
</svg>
